 <svg  version="1.0" xmlns="http://www.w3.org/2000/svg"  width="512.000000pt" height="512.000000pt" viewBox="0 0 70.000000 70.000000"  preserveAspectRatio="xMidYMid meet">  <g transform="translate(0.000000,70.000000) scale(0.100000,-0.100000)" fill="#6e5e9c" stroke="none"> <path d="M114 618 c-39 -18 -44 -49 -44 -268 0 -222 5 -250 47 -269 33 -15 433 -15 466 0 42 19 47 47 47 269 0 222 -5 250 -47 269 -31 14 -439 14 -469 -1z m470 -34 c11 -10 16 -34 16 -75 l0 -59 -250 0 -250 0 0 59 c0 93 -6 91 250 91 185 0 221 -2 234 -16z m-244 -234 l0 -70 -120 0 -120 0 0 70 0 70 120 0 120 0 0 -70z m260 0 l0 -70 -120 0 -120 0 0 70 0 70 120 0 120 0 0 -70z m-260 -175 l0 -75 -104 0 c-128 0 -136 5 -136 91 l0 59 120 0 120 0 0 -75z m260 16 c0 -86 -8 -91 -136 -91 l-104 0 0 75 0 75 120 0 120 0 0 -59z"/> </g> </svg> 